<svg width="114" height="21" viewBox="0 0 114 21" fill="none" xmlns="http://www.w3.org/2000/svg">
<g clip-path="url(#clip0_1_4)">
<path d="M4.50054 4.25472C5.25318 3.50208 6.11846 2.88256 7.11174 2.42176C7.35238 2.30912 7.59302 2.21696 7.83878 2.13504C8.6119 1.8944 9.42086 1.77664 10.2708 1.77664C11.4279 1.77664 12.5082 1.99168 13.5015 2.45248C14.5255 2.90816 15.4164 3.50208 16.169 4.25984C16.4557 4.54656 16.7169 4.84864 16.9473 5.16608C16.9677 5.1968 16.9933 5.22752 17.0138 5.25824C17.0855 5.35552 17.1521 5.4528 17.2186 5.5552H19.4561C19.2513 5.1456 19.0055 4.74624 18.729 4.36224L18.7188 4.34688L18.6932 4.31616C18.4986 4.0448 18.2836 3.78368 18.0532 3.52768L18.0173 3.4816C17.0189 2.37568 15.8618 1.51552 14.5153 0.921603C13.1687 0.327683 11.7658 0.0307236 10.2861 0.0307236C8.80646 0.0307236 7.5367 0.302083 6.29766 0.814083C5.05862 1.32608 3.98342 2.05312 3.03622 2.9696C2.2631 3.74272 1.6231 4.61824 1.11622 5.63712C1.0087 5.84704 0.906302 6.06208 0.809022 6.28224C0.460862 7.1168 0.215101 7.97696 0.107581 8.86784C0.0512606 9.32352 6.10352e-05 9.80992 6.10352e-05 10.2707C6.10352e-05 10.7315 0.0256606 11.1872 0.107581 11.6173C0.240701 12.5082 0.486461 13.3427 0.860221 14.1773C1.01894 14.5152 1.1879 14.8378 1.37734 15.1501C1.83814 15.9488 2.39622 16.681 3.06182 17.3312C4.0039 18.2477 5.08422 18.9747 6.32326 19.4867C7.5623 19.9987 8.88326 20.2701 10.281 20.2701H10.4193C10.5933 20.2701 10.7623 20.2701 10.9364 20.2496C10.9722 20.2496 11.0081 20.2496 11.0439 20.2394C11.73 20.1882 12.4007 20.0653 13.0305 19.8656C13.8906 19.5942 14.7559 19.2461 15.5341 18.7597C16.1741 18.3603 16.7578 17.9046 17.3057 17.3875C17.4285 17.2749 17.5463 17.1571 17.6641 17.0394C18.3092 16.3635 18.8519 15.6109 19.282 14.7507H17.1009C16.6349 15.401 16.0717 16 15.4369 16.5222C15.0477 16.8448 14.633 17.1315 14.1927 17.3926C13.0356 18.0685 11.7658 18.4166 10.3425 18.4166C9.23654 18.4166 8.18694 18.2016 7.18854 17.7408C6.19014 17.2851 5.30438 16.6656 4.54662 15.9078C3.78886 15.1501 3.20006 14.2643 2.73926 13.2659C2.28358 12.2675 2.06342 11.2179 2.06342 10.112C2.06342 9.00608 2.27846 7.93088 2.70854 6.93248C3.13862 5.90848 3.73254 5.0176 4.48518 4.26496L4.50054 4.25472Z" fill="white"/>
<path d="M25.4926 0.0256004H23.5009V20.2547H25.4926V10.7725H31.0426V9.04704H25.4926V0.0256004Z" fill="white"/>
<path d="M111.027 0.0512009V16.809H111.002L99.7121 0.0512009H96.9933V20.2547H98.985V2.47808H99.067L111.027 20.2547H113.075V0.0512009H111.027Z" fill="white"/>
<path d="M53.3249 3.01569C52.3828 2.09921 51.2769 1.39777 50.0378 0.860165C48.7988 0.348165 47.4778 0.0768051 46.0493 0.0768051C44.6209 0.0768051 43.2999 0.348165 42.0609 0.885765C40.8218 1.42337 39.7159 2.12481 38.7738 3.04129C37.8317 3.95777 37.1047 5.03297 36.5671 6.27201C36.2189 7.10657 35.9732 7.96673 35.8657 8.8576C35.8093 9.31329 35.7581 9.79969 35.7581 10.2605C35.7581 10.7213 35.7837 11.177 35.8657 11.607C35.9988 12.4979 36.2445 13.3325 36.6183 14.167C37.1815 15.3805 37.9393 16.4557 38.8813 17.3466C39.8234 18.2374 40.9037 18.9645 42.1428 19.4765C43.3818 19.9885 44.6772 20.2598 46.0493 20.2598C47.4215 20.2598 48.7681 19.9885 50.0378 19.4765C51.2769 18.9645 52.3828 18.2374 53.3249 17.321C54.2669 16.4045 55.0196 15.3293 55.5879 14.0902C56.1511 12.8512 56.4225 11.5302 56.4225 10.1325C56.4225 8.73473 56.1511 7.38305 55.5879 6.14401C55.0247 4.98689 54.2669 3.90657 53.3249 3.02081V3.01569ZM53.8369 13.3325C53.7908 13.4298 53.7447 13.527 53.6986 13.6192C53.2532 14.5613 52.6849 15.3702 51.9527 16.0768C51.2001 16.8294 50.3092 17.4234 49.2852 17.8534C48.2612 18.2835 47.186 18.4986 46.0545 18.4986C44.9229 18.4986 43.8477 18.2835 42.8493 17.8534C41.8509 17.4234 40.9652 16.8294 40.1818 16.1024C39.4292 15.3498 38.8097 14.4845 38.3489 13.4912C37.8932 12.4928 37.673 11.4432 37.673 10.3117C37.673 9.18017 37.8881 8.07425 38.3181 7.02465C38.4257 6.76353 38.5485 6.51265 38.6817 6.26689C39.0759 5.50401 39.5623 4.81793 40.1511 4.22913C40.9345 3.44577 41.7946 2.85697 42.8186 2.39617C43.817 1.94049 44.9178 1.72033 46.0801 1.72033C47.2423 1.72033 48.2868 1.96097 49.3108 2.39617C50.3348 2.85185 51.2257 3.44577 51.9783 4.20353C52.7617 4.95617 53.3505 5.84705 53.8369 6.87105C54.2925 7.89505 54.5127 8.97025 54.5127 10.1018C54.5127 11.2333 54.2977 12.3085 53.8369 13.3325Z" fill="white"/>
<path d="M90.4193 3.8147e-06H88.3713L80.9114 20.2547H82.9594L85.9751 12.0422L86.4206 10.7469H90.7418V9.02144H87.0708L90.4193 3.8147e-06Z" fill="white"/>
<path d="M71.8593 10.7725H77.4093L75.0644 16.7782C74.5268 17.1827 73.9329 17.5309 73.257 17.8022C72.233 18.2323 71.1578 18.4474 70.0263 18.4474C68.8948 18.4474 67.8196 18.2323 66.8212 17.8022C65.8228 17.3722 64.937 16.7782 64.1537 16.0512C63.401 15.2986 62.7815 14.4333 62.3207 13.44C61.865 12.4416 61.6449 11.392 61.6449 10.2605C61.6449 9.12897 61.8599 8.02305 62.29 6.97345C62.7201 5.94945 63.314 5.03297 64.0666 4.28033C64.8193 3.52769 65.7101 2.90817 66.7341 2.44737C67.7581 1.99169 68.8333 1.77152 69.9956 1.77152C71.1578 1.77152 72.233 1.98657 73.2263 2.44737C74.2503 2.90305 75.1412 3.49697 75.8938 4.25473C76.2983 4.65921 76.6465 5.08929 76.9434 5.55009H79.1809C78.7252 4.63361 78.0749 3.77345 77.2967 3.01569C76.3546 2.09921 75.2487 1.39777 74.0097 0.860165C72.7706 0.348165 71.4497 0.0768051 70.0212 0.0768051C68.5927 0.0768051 67.2717 0.348165 66.0327 0.885765C64.7937 1.42337 63.6877 2.12481 62.7457 3.04129C61.8036 3.95777 61.0765 5.03297 60.5389 6.27201C60.1908 7.10657 59.945 7.96673 59.8375 8.8576C59.7812 9.31329 59.73 9.79969 59.73 10.2605C59.73 10.7213 59.7556 11.177 59.8375 11.607C59.9706 12.4979 60.2164 13.3325 60.5901 14.167C61.1533 15.3805 61.9111 16.4557 62.8532 17.3466C63.7953 18.2374 64.8756 18.9645 66.1146 19.4765C67.3537 19.9885 68.649 20.2598 70.0212 20.2598C71.3933 20.2598 72.7399 19.9885 74.0097 19.4765C75.0695 19.0259 76.0013 18.4422 76.8513 17.7306L76.9281 17.6589L80.2714 9.04704H71.8541V10.7725H71.8593Z" fill="white"/>
</g>
<defs>
<clipPath id="clip0_1_4">
<rect width="113.076" height="20.2701" fill="white"/>
</clipPath>
</defs>
</svg>
