<svg width="198" height="48" viewBox="0 0 198 48" fill="none" xmlns="http://www.w3.org/2000/svg">
<path d="M90.8063 16.7285C90.789 17.1507 90.7716 17.885 90.7716 18.4806C90.7716 19.1109 90.789 19.9031 90.8063 20.3426C88.9617 20.3079 87.0188 20.3079 85.4922 20.3079V21.6031C87.279 21.6031 89.1583 21.5858 90.6675 21.5338C90.6502 22.2681 90.6328 23.8294 90.6502 24.6389C89.1757 24.6042 87.2617 24.5695 85.4922 24.5695V25.9226C87.0709 25.9226 89.1236 25.9053 90.8063 25.8879C90.789 26.3968 90.789 27.2237 90.789 27.9233C90.789 28.571 90.789 29.3632 90.8063 29.8894H80.0683C80.1204 28.0448 80.1377 26.1192 80.1377 23.309C80.1377 20.4987 80.1204 18.5384 80.0683 16.7285H90.8063Z" fill="white"/>
<path d="M105.297 16.7285C105.245 17.9197 105.228 19.134 105.228 20.9035C105.228 22.0079 105.262 23.7658 105.262 24.9743C105.262 28.5363 103.823 30.1149 98.6993 30.1149C93.5761 30.1149 92.1363 28.5363 92.1363 24.9743C92.1363 23.7658 92.1536 22.0079 92.1536 20.9035C92.1536 19.134 92.1189 17.9197 92.0842 16.7285H97.6469C97.6122 19.0068 97.5775 22.3433 97.5775 24.3787C97.5775 25.4138 97.9476 25.8706 98.8208 25.8706C99.6939 25.8706 100.012 25.4138 100.012 24.3787C100.012 22.3433 99.9773 19.0126 99.9599 16.7285H105.291H105.297Z" fill="white"/>
<path d="M116.417 24.5001C118.331 24.7661 119.117 25.327 119.453 27.2005C119.609 28.0621 119.788 29.2533 119.927 29.8836H115.347C114.578 29.8836 114.364 29.6002 114.208 28.4784C113.942 26.1655 113.768 25.7087 112.913 25.7087C112.56 25.7087 112.334 25.7087 111.964 25.726C111.999 27.3913 112.068 28.8485 112.172 29.8836H106.737C106.754 27.9869 106.806 26.1134 106.806 23.3032C106.806 20.4929 106.789 18.6194 106.737 16.7227H114.526C117.753 16.7227 119.562 17.7231 119.562 20.5623C119.562 23.0719 118.701 24.0722 116.423 24.3671V24.4886L116.417 24.5001ZM114.364 21.395C114.364 20.1344 113.942 19.8337 113.028 19.851C112.803 19.8337 112.346 19.851 111.906 19.8684C111.906 20.9034 111.906 21.9559 111.924 22.9562C112.277 22.9736 112.693 22.9736 113.184 22.9736C114.011 22.9736 114.358 22.5341 114.358 21.395H114.364Z" fill="white"/>
<path d="M127.328 30.115C122.344 30.115 120.366 28.0795 120.366 23.0083C120.366 17.9371 122.645 16.4973 127.328 16.4973C132.012 16.4973 134.418 18.0065 134.418 23.0083C134.418 28.0101 132.33 30.115 127.328 30.115ZM128.803 22.991C128.803 20.8341 128.329 20.2039 127.346 20.2039C126.363 20.2039 125.871 20.8168 125.871 22.991C125.871 25.304 126.345 26.0268 127.346 26.0268C128.346 26.0268 128.803 25.2924 128.803 22.991Z" fill="white"/>
<path d="M146.376 30.0108H135.372V29.8778C135.424 28.1084 135.447 26.2638 135.447 23.3032C135.447 20.3426 135.424 18.4401 135.377 16.7285V16.5956H146.376V16.7285C146.352 17.1449 146.335 17.8793 146.335 18.4748C146.335 19.1109 146.352 19.9031 146.37 20.331V20.4698H146.237C144.444 20.4351 142.577 20.4351 141.05 20.4351V21.4759C143.091 21.4759 144.785 21.4528 146.092 21.4065H146.231V21.5395C146.214 22.3028 146.196 23.8409 146.214 24.6389V24.7719H146.081C144.184 24.7257 142.496 24.7025 141.056 24.7025V25.7954C142.334 25.7954 144.08 25.7838 146.243 25.7607H146.376V25.8937C146.358 26.4026 146.358 27.2121 146.358 27.9233C146.358 28.5652 146.358 29.3574 146.376 29.8836V30.0166V30.0108ZM135.638 29.7564H146.11C146.098 29.2302 146.098 28.5132 146.098 27.9176C146.098 27.2584 146.098 26.524 146.11 26.0151C143.935 26.0383 142.195 26.0498 140.929 26.0498H140.801V24.4423H140.929C142.363 24.4423 144.051 24.4654 145.953 24.5117C145.942 23.7311 145.953 22.4242 145.971 21.6725C144.652 21.7188 142.958 21.7361 140.929 21.7361H140.801V20.1807H140.929C142.438 20.1807 144.311 20.1807 146.11 20.2154C146.092 19.7701 146.081 19.0647 146.081 18.4864C146.081 17.9429 146.092 17.2894 146.11 16.8615H135.638C135.684 18.5442 135.701 20.4293 135.701 23.309C135.701 26.1886 135.684 28.0274 135.638 29.7564Z" fill="white"/>
<path d="M149.238 30.0166L149.22 29.9068C148.954 28.2703 147.509 20.0708 146.751 16.7575L146.717 16.6014H152.667V16.7286C152.701 17.8099 153.037 21.1001 153.459 24.0839C153.557 24.6274 153.65 25.2172 153.737 25.7781C153.818 25.2346 153.904 24.6332 153.997 24.0954C154.419 21.1406 154.789 17.7636 154.835 16.7228V16.6014H160.438L160.404 16.7575C159.912 19.0184 159.114 23.4536 158.536 26.6917C158.27 28.172 158.062 29.3401 157.952 29.9125L157.929 30.0166H157.825C157.42 30.0166 156.911 30.0109 156.327 30.0051C155.523 29.9935 154.615 29.9819 153.632 29.9819C151.048 29.9819 149.845 30.0051 149.353 30.0166H149.244H149.238ZM153.627 29.7217C154.615 29.7217 155.523 29.7333 156.327 29.7449C156.859 29.7506 157.333 29.7564 157.715 29.7564C157.831 29.1551 158.027 28.039 158.282 26.6455C158.848 23.4767 159.623 19.163 160.12 16.8558H155.084C155.014 18.0239 154.656 21.2736 154.245 24.1301C154.118 24.8876 153.991 25.7665 153.893 26.4431L153.875 26.553H153.58L153.563 26.4431C153.459 25.7087 153.338 24.8645 153.193 24.1128C152.823 21.4875 152.464 18.1742 152.407 16.85H147.023C147.775 20.1923 149.14 27.9118 149.446 29.7449C149.995 29.7333 151.21 29.7102 153.615 29.7102L153.627 29.7217Z" fill="white"/>
<path d="M171.917 30.0108H160.913V29.8778C160.965 28.1084 160.988 26.2638 160.988 23.3032C160.988 20.3426 160.965 18.4401 160.918 16.7285V16.5956H171.917V16.7285C171.893 17.1449 171.876 17.8793 171.876 18.4748C171.876 19.1109 171.893 19.9031 171.911 20.331V20.4698H171.778C169.985 20.4351 168.118 20.4351 166.591 20.4351V21.4759C168.632 21.4759 170.326 21.4528 171.633 21.4065H171.772V21.5395C171.755 22.3028 171.737 23.8409 171.755 24.6389V24.7719H171.622C169.725 24.7257 168.037 24.7025 166.597 24.7025V25.7954C167.875 25.7954 169.621 25.7838 171.784 25.7607H171.917V25.8937C171.899 26.4026 171.899 27.2121 171.899 27.9233C171.899 28.5652 171.899 29.3574 171.917 29.8836V30.0166V30.0108ZM161.179 29.7564H171.651C171.639 29.2302 171.639 28.5132 171.639 27.9176C171.639 27.2584 171.639 26.524 171.651 26.0151C169.476 26.0383 167.736 26.0498 166.47 26.0498H166.342V24.4423H166.47C167.904 24.4423 169.592 24.4654 171.494 24.5117C171.483 23.7311 171.494 22.4242 171.512 21.6725C170.193 21.7188 168.499 21.7361 166.47 21.7361H166.342V20.1807H166.47C167.979 20.1807 169.852 20.1807 171.651 20.2154C171.633 19.7701 171.622 19.0647 171.622 18.4864C171.622 17.9429 171.633 17.2894 171.651 16.8615H161.179C161.225 18.5442 161.242 20.4293 161.242 23.309C161.242 26.1886 161.225 28.0274 161.179 29.7564Z" fill="white"/>
<path d="M186.315 30.0109H180.608L180.573 29.9299C180.145 28.8891 179.318 27.3625 178.508 25.888C178.254 25.3039 178.034 24.6968 177.832 24.0607C177.878 24.8529 177.901 25.5873 177.924 26.258C177.936 26.9519 177.948 27.5649 177.953 28.0853C177.965 28.9295 177.971 29.5367 177.994 29.8721L178.005 30.0109H173.004V29.8836C173.021 28.0853 173.038 26.0904 173.038 23.309C173.038 22.7192 173.038 22.1641 173.038 21.6437C173.038 19.695 173.038 18.1569 173.004 16.7344V16.6014H179.121L179.15 16.6939C179.283 17.1218 179.723 18.0586 180.191 19.0531C180.527 19.7702 180.873 20.5103 181.163 21.1695C181.325 21.5801 181.481 22.0311 181.625 22.4937C181.596 21.9733 181.573 21.4413 181.562 20.9035C181.544 19.4753 181.498 17.7983 181.44 16.7344V16.6014H186.349V16.7344C186.286 17.9892 186.274 20.9902 186.274 23.2917C186.274 26.258 186.274 28.2183 186.309 29.8836V30.0166L186.315 30.0109ZM180.781 29.7564H186.055C186.02 28.1142 186.02 26.1829 186.02 23.2917C186.02 21.0712 186.031 18.1915 186.083 16.8616H181.706C181.758 17.9313 181.804 19.5331 181.822 20.9093C181.845 21.7651 181.885 22.6093 181.943 23.4247L181.955 23.5634H181.666L181.643 23.4651C181.434 22.6845 181.186 21.927 180.926 21.2678C180.642 20.6144 180.295 19.8742 179.96 19.163C179.497 18.1858 179.098 17.33 178.936 16.8616H173.27C173.31 18.2494 173.304 19.7586 173.304 21.6437C173.304 22.1699 173.304 22.7192 173.304 23.309C173.304 26.0268 173.287 27.9928 173.27 29.7564H177.739C177.722 29.3979 177.716 28.837 177.705 28.0969C177.699 27.5764 177.687 26.9693 177.676 26.2754C177.647 25.3502 177.606 24.3036 177.52 23.1587V23.0604L177.791 22.9678L177.826 23.1008C178.086 24.0723 178.387 24.9512 178.751 25.7839C179.538 27.2179 180.347 28.7098 180.787 29.7564H180.781Z" fill="white"/>
<path d="M195.526 30.0397L195.382 30.0282C194.613 29.9761 193.352 29.9761 192.427 29.9761C191.502 29.9761 190.276 29.9761 189.472 30.0282L189.327 30.0397V29.8952C189.368 29.0914 189.403 25.7723 189.42 21.7997C188.697 21.7997 187.934 21.8171 187.194 21.8344H187.032V21.7014C187.049 21.0365 187.049 19.9956 187.049 19.163C187.049 18.3303 187.049 17.3415 187.032 16.7285V16.5956H197.822V16.7343C197.781 17.3473 197.781 18.3129 197.781 19.163C197.781 20.013 197.781 21.0365 197.816 21.7014V21.8402H197.683C197.284 21.8344 196.897 21.8287 196.509 21.8229C196.151 21.8229 195.798 21.8171 195.451 21.8055C195.468 25.8937 195.486 29.0798 195.52 29.8952V30.0397H195.526ZM189.553 21.5453H189.68V21.6725C189.663 25.5005 189.628 28.7502 189.599 29.7622C190.409 29.7159 191.571 29.7159 192.433 29.7159C193.294 29.7159 194.48 29.7159 195.266 29.7622C195.237 28.7445 195.22 25.6219 195.202 21.6725V21.5395H195.335C195.729 21.5511 196.122 21.5511 196.527 21.5569C196.868 21.5569 197.215 21.5627 197.567 21.5742C197.538 20.9035 197.538 19.9436 197.538 19.163C197.538 18.3823 197.538 17.4687 197.567 16.8558H187.309C187.321 17.4745 187.321 18.3708 187.321 19.163C187.321 19.9551 187.321 20.9092 187.304 21.5742C188.055 21.5569 188.83 21.5395 189.559 21.5395L189.553 21.5453Z" fill="white"/>
<path d="M86.3595 44.3802C87.5565 44.5305 88.0307 44.8774 88.3198 46.0513C88.5048 46.7105 88.6783 47.4448 88.7939 47.838H86.2034C85.7755 47.838 85.6946 47.6877 85.498 46.7914C85.2204 45.3285 85.0585 45.074 84.3473 45.074C83.9309 45.074 83.6881 45.0625 83.1272 45.074C83.1503 46.1901 83.185 47.1499 83.2544 47.838H80.3169C80.34 46.5717 80.3632 45.34 80.3632 43.4839C80.3632 41.6277 80.3516 40.3845 80.3169 39.1297H85.0643C87.1864 39.1297 88.4065 39.9161 88.4065 41.7549C88.4065 43.3451 87.8283 44.0737 86.3538 44.3108V44.3802H86.3595ZM85.6425 42.1944C85.6425 41.2634 85.2493 41.0553 84.3762 41.0553C84.1333 41.0553 83.5608 41.0668 83.1098 41.0784C83.1098 41.8301 83.1098 42.5876 83.1214 43.3046C83.4452 43.3162 83.9598 43.3162 84.5265 43.3277C85.2898 43.3277 85.6425 42.9692 85.6425 42.1886V42.1944Z" fill="white"/>
<path d="M94.0444 48C91.0607 48 89.563 46.4792 89.563 43.3335C89.563 40.1879 91.2226 38.9678 94.056 38.9678C96.8894 38.9678 98.5836 40.1879 98.5836 43.3335C98.5836 46.4792 97.0281 48 94.0444 48ZM95.623 43.3682C95.623 41.8243 95.091 41.1883 94.056 41.1883C93.0209 41.1883 92.4774 41.8012 92.4774 43.3682C92.4774 44.9353 93.0209 45.6523 94.056 45.6523C95.091 45.6523 95.623 44.9353 95.623 43.3682Z" fill="white"/>
<path d="M107.517 47.838C107.575 46.4907 107.598 45.473 107.61 44.0332C107.61 43.4665 107.645 42.8131 107.679 42.1886L107.61 42.177C107.437 42.8362 107.24 43.5012 107.078 43.9754L105.615 47.838H104.383L102.886 43.8829C102.712 43.3971 102.516 42.7437 102.342 42.1192L102.284 42.1308C102.308 42.7553 102.342 43.3624 102.354 43.9985C102.365 45.4615 102.388 46.5197 102.423 47.838H99.9945C100.029 46.5833 100.041 45.3169 100.041 43.4723C100.041 41.6277 100.029 40.2688 100.006 39.1297H103.637C103.903 39.9392 104.343 41.275 104.881 42.6917C104.996 43.0733 105.135 43.5995 105.262 44.0968H105.297C105.436 43.5995 105.575 43.0965 105.702 42.7032C106.188 41.3097 106.667 39.9277 106.933 39.1297H110.264C110.229 40.2688 110.218 41.5699 110.218 43.4723C110.218 45.3747 110.229 46.5833 110.276 47.838H107.512H107.517Z" fill="white"/>
<path d="M119.013 39.1355C119.001 39.3784 118.99 39.8178 118.99 40.159C118.99 40.5175 118.99 41.0206 119.013 41.275C117.596 41.2634 116.052 41.2519 114.89 41.2519V42.472C116.272 42.472 117.77 42.472 118.903 42.4373C118.892 42.8652 118.892 43.8771 118.892 44.3397C117.764 44.3166 116.255 44.305 114.89 44.305V45.5713C116.064 45.5713 117.689 45.5598 119.013 45.5482C118.99 45.8258 118.99 46.3346 118.99 46.7452C118.99 47.0921 118.99 47.5605 119.013 47.8496H112.028C112.063 46.6758 112.063 45.3516 112.063 43.4955C112.063 41.6393 112.063 40.2689 112.028 39.1413H119.013V39.1355Z" fill="white"/>
<path d="M123.703 46.2363C123.703 44.4496 124.772 43.7846 126.42 43.2757C127.895 42.8016 128.461 42.5703 128.461 41.8359C128.461 41.3733 128.115 41.0611 127.392 41.0611C126.6 41.0611 126.287 41.4311 126.287 41.9458C126.287 42.1424 126.299 42.2927 126.31 42.5125C126.01 42.4893 125.628 42.4778 125.183 42.4778C124.639 42.4778 124.148 42.5009 123.789 42.5356C123.766 42.2465 123.743 41.9805 123.743 41.7492C123.743 40.0781 124.847 38.9967 127.455 38.9967C130.063 38.9967 131.11 40.0781 131.11 41.6567C131.11 43.5822 130.063 44.1778 128.276 44.6635C126.998 44.9989 126.513 45.1955 126.42 45.6176C127.195 45.6176 128.08 45.6061 128.623 45.6061C129.497 45.6061 130.294 45.5829 130.977 45.5367C130.965 45.8836 130.954 46.3404 130.965 46.7799C130.965 47.2078 130.965 47.5779 130.977 47.8496H123.679C123.691 47.6877 123.691 47.3986 123.691 47.0632V46.2537L123.703 46.2363Z" fill="white"/>
<path d="M136.326 47.9884C133.458 47.9884 132.157 46.4908 132.157 43.322C132.157 40.1532 133.654 38.9794 136.337 38.9794C139.02 38.9794 140.553 40.1648 140.553 43.322C140.553 46.4792 139.194 47.9884 136.326 47.9884ZM135.019 43.3451C135.019 45.0972 135.505 45.5482 136.343 45.5482C137.181 45.5482 137.679 45.0856 137.679 43.3451C137.679 41.6971 137.193 41.2577 136.343 41.2577C135.493 41.2577 135.019 41.6856 135.019 43.3451Z" fill="white"/>
<path d="M141.553 46.2363C141.553 44.4496 142.623 43.7846 144.271 43.2757C145.745 42.8016 146.312 42.5703 146.312 41.8359C146.312 41.3733 145.965 41.0611 145.242 41.0611C144.456 41.0611 144.138 41.4311 144.138 41.9458C144.138 42.1424 144.149 42.2927 144.161 42.5125C143.86 42.4893 143.479 42.4778 143.033 42.4778C142.49 42.4778 141.998 42.5009 141.64 42.5356C141.617 42.2465 141.593 41.9805 141.593 41.7492C141.593 40.0781 142.698 38.9967 145.306 38.9967C147.914 38.9967 148.96 40.0781 148.96 41.6567C148.96 43.5822 147.914 44.1778 146.127 44.6635C144.849 44.9989 144.363 45.1955 144.271 45.6176C145.046 45.6176 145.93 45.6061 146.474 45.6061C147.347 45.6061 148.145 45.5829 148.827 45.5367C148.816 45.8836 148.804 46.3404 148.816 46.7799C148.816 47.2078 148.816 47.5779 148.827 47.8496H141.53C141.541 47.6877 141.541 47.3986 141.541 47.0632V46.2537L141.553 46.2363Z" fill="white"/>
<path d="M157.605 44.9353C157.605 47.0227 156.431 47.9884 153.962 47.9884C151.163 47.9884 150.227 47.0343 150.227 45.3169C150.227 45.155 150.227 44.9931 150.238 44.8081C150.608 44.8427 151.036 44.8543 151.551 44.8543C152.066 44.8543 152.482 44.8427 152.794 44.8081C152.783 44.889 152.783 44.9584 152.783 45.0278C152.783 45.687 153.106 46.0513 153.887 46.0513C154.668 46.0513 154.98 45.7275 154.98 44.8774C154.98 44.1026 154.644 43.7499 153.864 43.7499C153.286 43.7499 152.921 43.9118 152.748 44.2009C152.123 44.0506 150.892 43.958 150.296 43.9696C150.319 43.3798 150.319 42.5182 150.319 41.8127C150.319 40.8008 150.319 39.7831 150.261 39.1297C151.447 39.1528 152.326 39.1528 153.881 39.1528C155.333 39.1528 156.212 39.1413 157.397 39.1297C157.374 39.3957 157.362 39.6964 157.362 40.2457C157.362 40.6967 157.374 41.009 157.397 41.3617C156.853 41.3386 155.529 41.327 155.113 41.327C154.546 41.327 153.592 41.327 152.748 41.3386V42.0209C152.748 42.2638 152.748 42.5066 152.759 42.7495C153.245 42.4719 153.956 42.2869 154.812 42.2869C156.691 42.2869 157.611 43.1601 157.611 44.9353H157.605Z" fill="white"/>
<path d="M85.0354 2.95492C85.0354 2.01238 84.5034 1.70013 83.5146 1.70013C82.4044 1.7117 81.8782 2.19164 81.8782 3.74133C81.8782 5.29102 82.4391 5.90974 83.584 5.90974C84.6017 5.90974 85.0527 5.41824 85.0527 4.6723V4.50461C85.365 4.51618 85.6714 4.51618 85.9721 4.51618C86.2728 4.51618 86.6082 4.51618 86.932 4.50461C86.9205 4.60291 86.932 4.68965 86.932 4.78795C86.932 6.4822 85.7755 7.60978 83.5898 7.60978C81.2941 7.60978 79.9121 6.40125 79.9121 3.78759C79.9121 1.39366 81.1496 0.0232239 83.5898 0.0232239C86.03 0.0232239 86.9031 1.22019 86.9031 2.64267C86.9031 2.78723 86.8915 2.94914 86.8858 3.10526C86.5735 3.0937 86.2497 3.0937 85.9432 3.0937C85.6368 3.0937 85.3476 3.0937 85.0296 3.10526V2.9607L85.0354 2.95492Z" fill="white"/>
<path d="M95.3917 0.138824C95.3628 1.12762 95.3512 2.2552 95.3512 3.81645C95.3512 5.37771 95.3628 6.4359 95.3917 7.49408H93.4026C93.443 6.75971 93.4488 5.5801 93.4488 4.73008C92.9804 4.71273 92.4369 4.71273 91.9165 4.71273C91.396 4.71273 90.8583 4.71273 90.3957 4.73008C90.3957 5.58588 90.4072 6.75971 90.4362 7.49408H88.4528C88.499 6.4359 88.4933 5.37771 88.4933 3.81645C88.4933 2.2552 88.5048 1.12762 88.4528 0.138824H90.4362C90.4072 0.844282 90.3957 2.08751 90.3957 2.98378C90.8641 3.00113 91.3845 3.0127 91.9165 3.0127C92.4484 3.0127 92.9747 3.00113 93.4488 2.98378C93.4488 2.09329 93.4372 0.844282 93.4026 0.138824H95.3917Z" fill="white"/>
<path d="M100.579 7.64444C98.2946 7.64444 96.8836 6.23353 96.8836 3.72395C96.8836 1.21437 98.3929 6.10352e-05 100.579 6.10352e-05C102.764 6.10352e-05 104.303 1.19703 104.303 3.72395C104.303 6.25087 102.863 7.64444 100.579 7.64444ZM102.354 3.78177C102.354 2.39977 101.735 1.70588 100.59 1.70588C99.4452 1.70588 98.8034 2.38242 98.8034 3.78177C98.8034 5.18112 99.4337 5.92706 100.59 5.92706C101.747 5.92706 102.354 5.15221 102.354 3.78177Z" fill="white"/>
<path d="M110.53 2.78723C110.542 2.71784 110.542 2.64845 110.542 2.59062C110.542 1.93143 110.05 1.60761 109.102 1.60761C107.917 1.60761 107.379 2.13959 107.379 3.77602C107.379 5.41245 107.859 6.04852 109.171 6.04852C110.201 6.04852 110.565 5.64375 110.582 4.707C109.992 4.71856 109.287 4.72434 108.79 4.73591C108.801 4.6087 108.801 4.35427 108.801 4.22705C108.801 3.9148 108.801 3.66038 108.79 3.45221C109.408 3.46377 110.044 3.46377 110.507 3.46377C111.016 3.46377 111.681 3.47534 112.369 3.45221C112.537 6.01961 112.045 7.62134 109.096 7.62134C106.627 7.62134 105.447 6.02539 105.442 3.74711C105.442 1.45148 106.656 0.0116577 109.108 0.0116577C111.559 0.0116577 112.421 1.27801 112.421 2.41137C112.421 2.52702 112.421 2.65423 112.409 2.78144C112.196 2.76988 111.843 2.7641 111.496 2.7641C111.114 2.7641 110.761 2.7641 110.536 2.78144L110.53 2.78723Z" fill="white"/>
<path d="M119.019 7.49408C118.978 7.25122 118.834 6.70767 118.649 6.02535H115.63C115.445 6.67298 115.289 7.21074 115.22 7.49408H113.19C113.896 5.66105 115.358 1.19701 115.7 0.138824H118.649C119.013 1.20858 120.464 5.62057 121.216 7.49408H119.019ZM116.041 4.64334C116.434 4.65491 116.833 4.65491 117.128 4.65491C117.423 4.65491 117.845 4.65491 118.244 4.64334C118.03 3.89741 117.781 3.111 117.579 2.46915C117.371 1.87356 117.244 1.41096 117.139 1.07558C117.03 1.41096 116.897 1.86199 116.688 2.49806L116.041 4.64334Z" fill="white"/>
<path d="M129.167 0.138824C129.155 0.913671 129.138 2.24941 129.138 3.80489C129.138 5.36036 129.138 6.52842 129.155 7.49408H127.143C126.779 6.77706 125.634 5.03077 124.691 3.61407C124.396 3.13413 124.154 2.64262 123.957 2.15111C124.003 2.78718 124.038 3.38855 124.044 3.95523C124.055 5.75935 124.055 6.99679 124.084 7.49408H122.321C122.332 6.52263 122.349 5.38349 122.349 3.81645C122.349 2.24941 122.349 1.08136 122.321 0.138824H124.605C124.859 0.659244 126.125 2.50384 126.987 3.92632C127.224 4.31953 127.45 4.78212 127.617 5.23315C127.571 4.65491 127.531 4.07666 127.531 3.5389C127.531 2.28411 127.49 0.79224 127.45 0.144607H129.167V0.138824Z" fill="white"/>
<path d="M70.3192 20.7358C69.2321 21.8576 67.1273 22.8926 64.2419 23.7831C63.5133 24.0086 62.7327 24.2284 61.9058 24.4365C55.4179 26.0614 46.0677 27.0849 35.6709 27.0849C25.274 27.0849 15.9238 26.0614 9.43595 24.4365C8.60906 24.2284 7.82843 24.0144 7.09984 23.7831C4.21441 22.8926 2.1096 21.8576 1.0225 20.7358C0.716036 20.4235 0.184052 20.649 0.184052 21.0885V27.6863C0.184052 27.906 0.224529 28.12 0.2997 28.3397C0.941551 30.1843 4.28958 31.8554 9.43595 33.1449C15.9238 34.7698 25.274 35.7932 35.6709 35.7932C46.0677 35.7932 55.4179 34.7698 61.9058 33.1449C67.0521 31.8496 70.4002 30.1843 71.042 28.3397C71.1172 28.1257 71.1577 27.906 71.1577 27.6863V21.0885C71.1577 20.649 70.6199 20.4177 70.3192 20.7358Z" fill="white"/>
<path d="M70.3192 32.9424C69.2321 34.0642 67.1273 35.0993 64.2419 35.9898C63.5133 36.2153 62.7327 36.435 61.9058 36.6432C55.4179 38.268 46.0677 39.2915 35.6709 39.2915C25.274 39.2915 15.9238 38.268 9.43595 36.6432C8.60906 36.435 7.82843 36.2211 7.09984 35.9898C4.21441 35.0993 2.1096 34.0642 1.0225 32.9424C0.716036 32.6302 0.184052 32.8557 0.184052 33.2951V39.8929C0.184052 40.1126 0.224529 40.3266 0.2997 40.5463C0.941551 42.3909 4.28958 44.062 9.43595 45.3515C15.9238 46.9764 25.274 47.9999 35.6709 47.9999C46.0677 47.9999 55.4179 46.9764 61.9058 45.3515C67.0521 44.0563 70.4002 42.3909 71.042 40.5463C71.1172 40.3324 71.1577 40.1126 71.1577 39.8929V33.2951C71.1577 32.8557 70.6199 32.6244 70.3192 32.9424Z" fill="white"/>
<path d="M37.1395 14.9476C36.648 14.9476 36.1623 14.9592 35.665 14.9592C29.0557 14.9592 22.8743 14.566 17.5775 13.8779L15.4901 13.583C14.8656 13.4904 14.2469 13.3921 13.6513 13.2881C11.1533 12.8544 8.92702 12.3513 7.03616 11.7904C12.6046 10.1366 21.1106 8.98014 30.8829 8.6968C31.2646 8.68524 31.571 8.37298 31.571 7.98556V0.850034C31.571 0.456828 31.253 0.138794 30.8598 0.138794C30.854 0.138794 30.8482 0.138794 30.8367 0.138794C13.9577 0.641866 0.843172 3.72969 0.207104 7.51718C0.189757 7.41888 0.178192 7.32058 0.178192 7.2165V15.7687C0.178192 16.3874 0.507791 16.9888 1.13808 17.5671C3.0058 19.2844 7.50454 20.7821 13.6513 21.8461C19.6997 22.8927 27.3499 23.5172 35.6708 23.5172C38.5447 23.5172 41.3376 23.442 44.0091 23.3032C44.3849 23.2859 44.6798 22.9736 44.6798 22.592V15.4623C44.6798 15.0575 44.3387 14.7337 43.9339 14.7568C41.9274 14.8609 39.8515 14.9303 37.7235 14.9534H37.1395V14.9476ZM9.15832 3.26709C14.7673 1.87353 22.4753 0.971465 30.8598 0.72282C30.9292 0.72282 30.987 0.780644 30.987 0.850034V7.98556C30.987 8.05495 30.935 8.10699 30.8656 8.11277C20.8273 8.40768 11.8125 9.62777 6.08784 11.4724C2.69933 10.3332 0.762218 9.00327 0.762218 7.80631C0.762218 6.2624 3.90208 4.56236 9.15832 3.26131V3.26709Z" fill="white"/>
<path d="M70.3192 20.7358C69.2321 21.8576 67.1273 22.8926 64.2419 23.7831C63.5133 24.0086 62.7327 24.2284 61.9058 24.4365C55.4179 26.0614 46.0677 27.0849 35.6709 27.0849C25.274 27.0849 15.9238 26.0614 9.43595 24.4365C8.60906 24.2284 7.82843 24.0144 7.09984 23.7831C4.21441 22.8926 2.1096 21.8576 1.0225 20.7358C0.716036 20.4235 0.184052 20.649 0.184052 21.0885V27.6863C0.184052 27.906 0.224529 28.12 0.2997 28.3397C0.941551 30.1843 4.28958 31.8554 9.43595 33.1449C15.9238 34.7698 25.274 35.7932 35.6709 35.7932C46.0677 35.7932 55.4179 34.7698 61.9058 33.1449C67.0521 31.8496 70.4002 30.1843 71.042 28.3397C71.1172 28.1257 71.1577 27.906 71.1577 27.6863V21.0885C71.1577 20.649 70.6199 20.4177 70.3192 20.7358Z" fill="white"/>
<path d="M70.3192 32.9424C69.2321 34.0642 67.1273 35.0993 64.2419 35.9898C63.5133 36.2153 62.7327 36.435 61.9058 36.6432C55.4179 38.268 46.0677 39.2915 35.6709 39.2915C25.274 39.2915 15.9238 38.268 9.43595 36.6432C8.60906 36.435 7.82843 36.2211 7.09984 35.9898C4.21441 35.0993 2.1096 34.0642 1.0225 32.9424C0.716036 32.6302 0.184052 32.8557 0.184052 33.2951V39.8929C0.184052 40.1126 0.224529 40.3266 0.2997 40.5463C0.941551 42.3909 4.28958 44.062 9.43595 45.3515C15.9238 46.9764 25.274 47.9999 35.6709 47.9999C46.0677 47.9999 55.4179 46.9764 61.9058 45.3515C67.0521 44.0563 70.4002 42.3909 71.042 40.5463C71.1172 40.3324 71.1577 40.1126 71.1577 39.8929V33.2951C71.1577 32.8557 70.6199 32.6244 70.3192 32.9424Z" fill="white"/>
<path d="M37.1395 14.9476C36.648 14.9476 36.1623 14.9592 35.665 14.9592C29.0557 14.9592 22.8743 14.566 17.5775 13.8779L15.4901 13.583C14.8656 13.4904 14.2469 13.3921 13.6513 13.2881C11.1533 12.8544 8.92702 12.3513 7.03616 11.7904C12.6046 10.1366 21.1106 8.98014 30.8829 8.6968C31.2646 8.68524 31.571 8.37298 31.571 7.98556V0.850034C31.571 0.456828 31.253 0.138794 30.8598 0.138794C30.854 0.138794 30.8482 0.138794 30.8367 0.138794C13.9577 0.641866 0.843172 3.72969 0.207104 7.51718C0.189757 7.41888 0.178192 7.32058 0.178192 7.2165V15.7687C0.178192 16.3874 0.507791 16.9888 1.13808 17.5671C3.0058 19.2844 7.50454 20.7821 13.6513 21.8461C19.6997 22.8927 27.3499 23.5172 35.6708 23.5172C38.5447 23.5172 41.3376 23.442 44.0091 23.3032C44.3849 23.2859 44.6798 22.9736 44.6798 22.592V15.4623C44.6798 15.0575 44.3387 14.7337 43.9339 14.7568C41.9274 14.8609 39.8515 14.9303 37.7235 14.9534H37.1395V14.9476ZM9.15832 3.26709C14.7673 1.87353 22.4753 0.971465 30.8598 0.72282C30.9292 0.72282 30.987 0.780644 30.987 0.850034V7.98556C30.987 8.05495 30.935 8.10699 30.8656 8.11277C20.8273 8.40768 11.8125 9.62777 6.08784 11.4724C2.69933 10.3332 0.762218 9.00327 0.762218 7.80631C0.762218 6.2624 3.90208 4.56236 9.15832 3.26131V3.26709Z" fill="white"/>
</svg>
